<?xml version="1.0" encoding="UTF-8"?>
<svg id="Flag" xmlns="http://www.w3.org/2000/svg" viewBox="0 0 1400 1400">
  <defs>
    <style>
      .cls-1 {
        fill: #f2f2f2;
      }

      .cls-1, .cls-2, .cls-3, .cls-4, .cls-5 {
        stroke-width: 0px;
      }

      .cls-2 {
        fill: #ff002d;
      }

      .cls-3 {
        opacity: .5;
      }

      .cls-3, .cls-4 {
        isolation: isolate;
      }

      .cls-3, .cls-5 {
        fill: #fff;
      }

      .cls-4 {
        fill: #000;
        opacity: .3;
      }
    </style>
  </defs>
  <g id="Singapore">
    <circle class="cls-2" cx="700" cy="700" r="700"/>
    <polygon class="cls-5" points="552.8 216.8 564.9 252.7 602.8 253.8 572.4 276.4 583.1 312.8 552.1 290.9 520.8 312.3 532.1 276.1 502.1 252.9 540 252.5 552.8 216.8"/>
    <polygon class="cls-5" points="674.9 304.4 687 340.3 724.9 341.4 694.5 364 705.2 400.4 674.2 378.5 643 399.9 654.3 363.7 624.2 340.5 662.2 340.1 674.9 304.4"/>
    <polygon class="cls-5" points="433.8 304.4 446 340.3 483.9 341.4 453.5 364 464.1 400.4 433.2 378.5 401.9 399.9 413.2 363.7 383.2 340.5 421.1 340.1 433.8 304.4"/>
    <polygon class="cls-5" points="484.2 441 496.3 476.9 534.2 478 503.8 500.6 514.5 537 483.5 515 452.3 536.4 463.6 500.3 433.5 477.1 471.4 476.7 484.2 441"/>
    <polygon class="cls-5" points="633.1 441 645.2 476.9 683.1 478 652.7 500.6 663.4 537 632.5 515 601.2 536.4 612.5 500.3 582.5 477.1 620.4 476.7 633.1 441"/>
    <path class="cls-5" d="M474.3,184s-153.6,41.8-153.6,205.7,153.6,218.5,153.6,218.5c0,0-257.1,25.8-257.1-212s257.1-212.2,257.1-212.2Z"/>
    <path class="cls-1" d="M.4,723.5c12.4,375.7,320.9,676.5,699.6,676.5s687.2-300.8,699.6-676.5H.4Z"/>
    <path class="cls-4" d="M1107.8,131c82.5,114.8,131,255.7,131,407.8,0,386.6-313.4,700-700,700-152.2,0-293-48.6-407.8-131,127,176.9,334.5,292.2,569,292.2,386.6,0,700-313.4,700-700,0-234.4-115.3-441.9-292.2-569Z"/>
    <circle class="cls-3" cx="348.9" cy="389.2" r="150.1"/>
  </g>
</svg>