<?xml version="1.0" encoding="UTF-8"?>
<svg id="Layer_1" xmlns="http://www.w3.org/2000/svg" viewBox="0 0 1024 1024">
  <defs>
    <style>
      .cls-1 {
        fill: #fff;
      }
    </style>
  </defs>
  <rect class="cls-1" width="1024" height="1024"/>
  <g>
    <path d="M-.52,818.59V205.41h215.12c99.29,0,173.13,25.74,221.56,77.22,48.41,51.49,72.63,127.79,72.63,228.91s-24.22,177.59-72.63,229.37c-48.42,51.8-122.27,77.68-221.56,77.68H-.52ZM100.61,733.09h103.89c68.63,0,119.19-17.61,151.69-52.86,32.48-35.24,48.72-91.47,48.72-168.69s-16.25-132.68-48.72-168.24c-32.49-35.54-83.06-53.32-151.69-53.32h-103.89v443.11Z"/>
    <path d="M630.13,818.59V205.41h102.05v526.78h292.34v86.41h-394.39Z"/>
  </g>
  <rect y="871" width="1025" height="20"/>
</svg>